<svg xmlns="http://www.w3.org/2000/svg" width="52.624" height="23.36" viewBox="0 0 52.624 23.36">
  <g id="그룹_484" data-name="그룹 484" transform="translate(-1199.727 -1568.54)">
    <g id="그룹_498" data-name="그룹 498" transform="translate(3.768 34.669)">
      <g id="그룹_493" data-name="그룹 493" transform="translate(1195.232 1533.331)">
        <g id="타원_116" data-name="타원 116" transform="translate(6.132 6.068)" fill="#fff" stroke="#707070" stroke-width="1">
          <circle cx="5.65" cy="5.65" r="5.65" stroke="none"/>
          <circle cx="5.65" cy="5.65" r="5.15" fill="none"/>
        </g>
        <g id="타원_117" data-name="타원 117" transform="translate(9.637 0.54)" fill="#fff" stroke="#707070" stroke-width="1">
          <circle cx="1.987" cy="1.987" r="1.987" stroke="none"/>
          <circle cx="1.987" cy="1.987" r="1.487" fill="none"/>
        </g>
        <g id="타원_118" data-name="타원 118" transform="translate(9.637 19.927)" fill="#fff" stroke="#707070" stroke-width="1">
          <circle cx="1.987" cy="1.987" r="1.987" stroke="none"/>
          <circle cx="1.987" cy="1.987" r="1.487" fill="none"/>
        </g>
        <g id="그룹_495" data-name="그룹 495" transform="matrix(0.966, -0.259, 0.259, 0.966, 0, 4.883)">
          <g id="타원_119" data-name="타원 119" transform="translate(0 2.81) rotate(-45)" fill="#fff" stroke="#707070" stroke-width="1">
            <circle cx="1.987" cy="1.987" r="1.987" stroke="none"/>
            <circle cx="1.987" cy="1.987" r="1.487" fill="none"/>
          </g>
          <g id="타원_120" data-name="타원 120" transform="translate(13.247 16.602) rotate(-45)" fill="#fff" stroke="#707070" stroke-width="1">
            <circle cx="1.987" cy="1.987" r="1.987" stroke="none"/>
            <circle cx="1.987" cy="1.987" r="1.487" fill="none"/>
          </g>
        </g>
        <g id="그룹_496" data-name="그룹 496" transform="matrix(-0.966, -0.259, 0.259, -0.966, 18.224, 23.634)">
          <g id="타원_119-2" data-name="타원 119" transform="translate(2.81 13.792) rotate(45)" fill="#fff" stroke="#707070" stroke-width="1">
            <circle cx="1.987" cy="1.987" r="1.987" stroke="none"/>
            <circle cx="1.987" cy="1.987" r="1.487" fill="none"/>
          </g>
          <g id="타원_120-2" data-name="타원 120" transform="translate(16.057) rotate(45)" fill="#fff" stroke="#707070" stroke-width="1">
            <circle cx="1.987" cy="1.987" r="1.987" stroke="none"/>
            <circle cx="1.987" cy="1.987" r="1.487" fill="none"/>
          </g>
        </g>
      </g>
      <g id="그룹_497" data-name="그룹 497" transform="translate(1226.063 1533.331)">
        <g id="타원_116-2" data-name="타원 116" transform="translate(6.132 6.068)" fill="#fff" stroke="#707070" stroke-width="1">
          <circle cx="5.65" cy="5.65" r="5.65" stroke="none"/>
          <circle cx="5.65" cy="5.65" r="5.15" fill="none"/>
        </g>
        <g id="타원_117-2" data-name="타원 117" transform="translate(9.637 0.54)" fill="#fff" stroke="#707070" stroke-width="1">
          <circle cx="1.987" cy="1.987" r="1.987" stroke="none"/>
          <circle cx="1.987" cy="1.987" r="1.487" fill="none"/>
        </g>
        <g id="타원_118-2" data-name="타원 118" transform="translate(9.637 19.927)" fill="#fff" stroke="#707070" stroke-width="1">
          <circle cx="1.987" cy="1.987" r="1.987" stroke="none"/>
          <circle cx="1.987" cy="1.987" r="1.487" fill="none"/>
        </g>
        <g id="그룹_495-2" data-name="그룹 495" transform="matrix(0.966, -0.259, 0.259, 0.966, 0, 4.883)">
          <g id="타원_119-3" data-name="타원 119" transform="translate(0 2.81) rotate(-45)" fill="#fff" stroke="#707070" stroke-width="1">
            <circle cx="1.987" cy="1.987" r="1.987" stroke="none"/>
            <circle cx="1.987" cy="1.987" r="1.487" fill="none"/>
          </g>
          <g id="타원_120-3" data-name="타원 120" transform="translate(13.247 16.602) rotate(-45)" fill="#fff" stroke="#707070" stroke-width="1">
            <circle cx="1.987" cy="1.987" r="1.987" stroke="none"/>
            <circle cx="1.987" cy="1.987" r="1.487" fill="none"/>
          </g>
        </g>
        <g id="그룹_496-2" data-name="그룹 496" transform="matrix(-0.966, -0.259, 0.259, -0.966, 18.224, 23.634)">
          <g id="타원_119-4" data-name="타원 119" transform="translate(2.81 13.792) rotate(45)" fill="#fff" stroke="#707070" stroke-width="1">
            <circle cx="1.987" cy="1.987" r="1.987" stroke="none"/>
            <circle cx="1.987" cy="1.987" r="1.487" fill="none"/>
          </g>
          <g id="타원_120-4" data-name="타원 120" transform="translate(16.057) rotate(45)" fill="#fff" stroke="#707070" stroke-width="1">
            <circle cx="1.987" cy="1.987" r="1.987" stroke="none"/>
            <circle cx="1.987" cy="1.987" r="1.487" fill="none"/>
          </g>
        </g>
      </g>
    </g>
  </g>
</svg>
